<?xml version="1.0" encoding="UTF-8"?>
<!DOCTYPE svg PUBLIC "-//W3C//DTD SVG 1.1//EN" "http://www.w3.org/Graphics/SVG/1.1/DTD/svg11.dtd">
<svg xmlns="http://www.w3.org/2000/svg" version="1.1" width="135px" height="135px" style="shape-rendering:geometricPrecision; text-rendering:geometricPrecision; image-rendering:optimizeQuality; fill-rule:evenodd; clip-rule:evenodd" xmlns:xlink="http://www.w3.org/1999/xlink">
<g><path style="opacity:1" fill="#3101fe" d="M 127.5,2.5 C 127.5,10.8333 127.5,19.1667 127.5,27.5C 126.5,27.5 125.5,27.5 124.5,27.5C 124.5,20.1667 124.5,12.8333 124.5,5.5C 95.8314,5.33336 67.1647,5.50002 38.5,6C 33.0852,37.7334 28.0852,69.5667 23.5,101.5C 22.2206,108.456 21.2206,115.456 20.5,122.5C 19.1667,122.5 17.8333,122.5 16.5,122.5C 13.9706,110.049 10.9706,97.716 7.5,85.5C 6.38009,86.8334 5.04675,87.3334 3.5,87C 5.11368,84.8733 7.11368,83.3733 9.5,82.5C 9.83333,82.5 10.1667,82.5 10.5,82.5C 13.2985,91.9555 15.7985,101.622 18,111.5C 23.9365,75.2156 29.4365,38.8823 34.5,2.5C 65.5,2.5 96.5,2.5 127.5,2.5 Z"/></g>
<g><path style="opacity:1" fill="#fff590" d="M 127.5,2.5 C 128.167,10.5 128.833,18.5 129.5,26.5C 129.586,27.4959 129.252,28.3292 128.5,29C 126.559,29.7429 124.726,29.5762 123,28.5C 122.5,21.5079 122.334,14.5079 122.5,7.5C 95.1585,7.16686 67.8252,7.5002 40.5,8.5C 35.2448,41.3041 29.9114,73.9707 24.5,106.5C 24.7845,104.585 24.4511,102.919 23.5,101.5C 28.0852,69.5667 33.0852,37.7334 38.5,6C 67.1647,5.50002 95.8314,5.33336 124.5,5.5C 124.5,12.8333 124.5,20.1667 124.5,27.5C 125.5,27.5 126.5,27.5 127.5,27.5C 127.5,19.1667 127.5,10.8333 127.5,2.5 Z"/></g>
<g><path style="opacity:0.999" fill="#fffb8c" d="M 91.5,22.5 C 99.1667,22.5 106.833,22.5 114.5,22.5C 114.664,25.1873 114.497,27.854 114,30.5C 107.595,37.9803 103.928,46.6469 103,56.5C 100.599,57.6023 98.0991,57.769 95.5,57C 94.8385,47.6539 97.1719,38.9872 102.5,31C 98.8333,30.6667 95.1667,30.3333 91.5,30C 90.2215,27.5024 90.2215,25.0024 91.5,22.5 Z"/></g>
<g><path style="opacity:0.999" fill="#4a06fc" d="M 92.5,24.5 C 99.1667,24.5 105.833,24.5 112.5,24.5C 112.657,25.8734 112.49,27.2068 112,28.5C 105.595,35.9803 101.928,44.6469 101,54.5C 99.1197,55.9295 97.6197,55.5962 96.5,53.5C 98.1548,44.3625 101.822,36.1958 107.5,29C 102.511,28.5007 97.5111,28.3341 92.5,28.5C 92.5,27.1667 92.5,25.8333 92.5,24.5 Z"/></g>
<g><path style="opacity:1" fill="#fff88e" d="M 55.5,70.5 C 59.226,70.1774 62.8927,70.5108 66.5,71.5C 67.7467,74.3286 69.2467,76.9952 71,79.5C 73.1667,76.6667 75.3333,73.8333 77.5,71C 81.1516,70.5014 84.8183,70.3347 88.5,70.5C 88.6602,72.1992 88.4935,73.8659 88,75.5C 83.8333,80.3333 79.6667,85.1667 75.5,90C 78.1276,94.7549 80.6276,99.5882 83,104.5C 83.6838,105.784 83.5171,106.951 82.5,108C 79.1177,108.824 75.7844,108.657 72.5,107.5C 71.2533,104.671 69.7533,102.005 68,99.5C 65.6176,102.427 63.1176,105.261 60.5,108C 56.8484,108.499 53.1817,108.665 49.5,108.5C 49.372,106.345 49.872,104.345 51,102.5C 55.0835,97.9753 58.9168,93.3086 62.5,88.5C 59.5857,82.6803 57.2524,76.6803 55.5,70.5 Z"/></g>
<g><path style="opacity:0.999" fill="#3b03fd" d="M 57.5,73.5 C 59.6934,72.2031 62.0268,72.2031 64.5,73.5C 66.3333,77.1667 68.1667,80.8333 70,84.5C 73.1667,80.6667 76.3333,76.8333 79.5,73C 81.8333,72.3333 84.1667,72.3333 86.5,73C 81.4557,78.3756 76.789,84.0422 72.5,90C 75.2943,95.0883 77.961,100.255 80.5,105.5C 78.5787,106.641 76.5787,106.808 74.5,106C 72.2657,102.364 70.4323,98.5311 69,94.5C 65.8333,98.1667 62.6667,101.833 59.5,105.5C 56.8938,106.652 54.2272,106.818 51.5,106C 56.5,100.333 61.5,94.6667 66.5,89C 63.852,83.5247 60.852,78.358 57.5,73.5 Z"/></g>
<g><path style="opacity:0.999" fill="#fff590" d="M 129.5,26.5 C 128.833,18.5 128.167,10.5 127.5,2.5C 96.5,2.5 65.5,2.5 34.5,2.5C 29.4365,38.8823 23.9365,75.2156 18,111.5C 15.7985,101.622 13.2985,91.9555 10.5,82.5C 10.1667,81.1667 9.83333,81.1667 9.5,82.5C 7.11368,83.3733 5.11368,84.8733 3.5,87C 5.04675,87.3334 6.38009,86.8334 7.5,85.5C 10.9706,97.716 13.9706,110.049 16.5,122.5C 17.8333,122.5 19.1667,122.5 20.5,122.5C 21.2206,115.456 22.2206,108.456 23.5,101.5C 24.4511,102.919 24.7845,104.585 24.5,106.5C 24.0512,112.526 23.3845,118.526 22.5,124.5C 19.7531,124.813 17.0865,124.48 14.5,123.5C 11.9787,112.081 9.14537,100.748 6,89.5C 4.30054,90.4061 2.4672,90.7394 0.5,90.5C 1.33373,82.6701 5.66706,79.3367 13.5,80.5C 14.3592,86.2707 15.6926,91.9373 17.5,97.5C 22.7913,65.2884 28.1246,33.1218 33.5,1C 65.4983,0.500018 97.4983,0.333351 129.5,0.5C 129.5,9.16667 129.5,17.8333 129.5,26.5 Z"/></g>
</svg>
