<?xml version="1.0" encoding="UTF-8"?>
<!DOCTYPE svg PUBLIC "-//W3C//DTD SVG 1.1//EN" "http://www.w3.org/Graphics/SVG/1.1/DTD/svg11.dtd">
<svg xmlns="http://www.w3.org/2000/svg" version="1.1" width="100px" height="56px" style="shape-rendering:geometricPrecision; text-rendering:geometricPrecision; image-rendering:optimizeQuality; fill-rule:evenodd; clip-rule:evenodd" xmlns:xlink="http://www.w3.org/1999/xlink">
<g><path style="opacity:0.78" fill="#8ffdd4" d="M 72.5,3.5 C 72.5,4.16667 72.1667,4.5 71.5,4.5C 60.1667,4.5 48.8333,4.5 37.5,4.5C 37.7678,6.09903 37.4345,7.43236 36.5,8.5C 36.1667,8.5 35.8333,8.5 35.5,8.5C 35.4208,7.06953 35.7542,5.73619 36.5,4.5C 48.4815,3.50103 60.4815,3.16769 72.5,3.5 Z"/></g>
<g><path style="opacity:1" fill="#141cff" d="M 71.5,4.5 C 71.6646,7.51838 71.498,10.5184 71,13.5C 70.5034,11.1902 70.3367,8.85684 70.5,6.5C 60.0131,5.50558 49.3464,5.17225 38.5,5.5C 38.2756,9.17884 37.9422,12.8455 37.5,16.5C 36.6618,16.1583 36.3284,15.4916 36.5,14.5C 36.5,12.5 36.5,10.5 36.5,8.5C 37.4345,7.43236 37.7678,6.09903 37.5,4.5C 48.8333,4.5 60.1667,4.5 71.5,4.5 Z"/></g>
<g><path style="opacity:0.765" fill="#8efcd2" d="M 70.5,6.5 C 70.1667,6.5 69.8333,6.5 69.5,6.5C 59.8276,6.33353 50.1609,6.5002 40.5,7C 39.6962,10.1174 39.0295,13.284 38.5,16.5C 38.1667,16.5 37.8333,16.5 37.5,16.5C 37.9422,12.8455 38.2756,9.17884 38.5,5.5C 49.3464,5.17225 60.0131,5.50558 70.5,6.5 Z"/></g>
<g><path style="opacity:0.71" fill="#5cd5e0" d="M 72.5,3.5 C 73.6433,6.97579 73.8099,10.6425 73,14.5C 71.9887,15.3366 70.8221,15.67 69.5,15.5C 69.5,12.5 69.5,9.5 69.5,6.5C 69.8333,6.5 70.1667,6.5 70.5,6.5C 70.3367,8.85684 70.5034,11.1902 71,13.5C 71.498,10.5184 71.6646,7.51838 71.5,4.5C 72.1667,4.5 72.5,4.16667 72.5,3.5 Z"/></g>
<g><path style="opacity:0.71" fill="#76edd4" d="M 57.5,11.5 C 60.8333,11.5 64.1667,11.5 67.5,11.5C 65.7162,15.9852 64.3828,20.6518 63.5,25.5C 62.1667,25.5 60.8333,25.5 59.5,25.5C 59.0632,22.1934 59.7298,19.1934 61.5,16.5C 60.3112,15.5713 58.9778,15.238 57.5,15.5C 57.5,14.1667 57.5,12.8333 57.5,11.5 Z"/></g>
<g><path style="opacity:0.82" fill="#96fbcd" d="M 35.5,8.5 C 35.8333,8.5 36.1667,8.5 36.5,8.5C 36.5,10.5 36.5,12.5 36.5,14.5C 35.408,19.3622 34.408,24.3622 33.5,29.5C 33.2065,34.261 32.3731,38.9276 31,43.5C 30.51,42.2068 30.3433,40.8734 30.5,39.5C 31.3382,39.1583 31.6716,38.4916 31.5,37.5C 32.6732,27.8084 34.0065,18.1417 35.5,8.5 Z"/></g>
<g><path style="opacity:0.875" fill="#314dff" d="M 59.5,12.5 C 61.924,12.1924 64.2573,12.5258 66.5,13.5C 64.3035,16.5596 62.6369,19.893 61.5,23.5C 61.0546,20.7821 61.7212,18.1154 63.5,15.5C 61.6684,14.9432 60.3351,13.9432 59.5,12.5 Z"/></g>
<g><path style="opacity:0.984" fill="#3446ff" d="M 36.5,14.5 C 36.3284,15.4916 36.6618,16.1583 37.5,16.5C 36.4913,21.2852 35.4913,25.9519 34.5,30.5C 34.5,29.8333 34.1667,29.5 33.5,29.5C 34.408,24.3622 35.408,19.3622 36.5,14.5 Z"/></g>
<g><path style="opacity:0.796" fill="#7bf5e3" d="M 37.5,16.5 C 37.8333,16.5 38.1667,16.5 38.5,16.5C 37.7651,22.3403 36.7651,28.007 35.5,33.5C 35.5,32.8333 35.1667,32.5 34.5,32.5C 34.5,31.8333 34.5,31.1667 34.5,30.5C 35.4913,25.9519 36.4913,21.2852 37.5,16.5 Z"/></g>
<g><path style="opacity:0.82" fill="#9cf9c5" d="M 57.5,31.5 C 57.1667,31.5 56.8333,31.5 56.5,31.5C 55.7494,30.4265 54.7494,30.2599 53.5,31C 52.7894,32.2547 51.956,33.4214 51,34.5C 46.7508,29.081 45.9174,29.581 48.5,36C 47.75,38.5712 46.4167,40.7378 44.5,42.5C 43.8333,42.5 43.5,42.1667 43.5,41.5C 46.9246,38.1285 47.2579,34.4619 44.5,30.5C 46.396,29.5344 48.396,29.2011 50.5,29.5C 50.4592,33.2434 51.1259,33.4101 52.5,30C 53.3333,29.8333 54.1667,29.6667 55,29.5C 56.3756,29.6842 57.2089,30.3509 57.5,31.5 Z"/></g>
<g><path style="opacity:0.435" fill="#78f5db" d="M 31.5,37.5 C 31.6716,38.4916 31.3382,39.1583 30.5,39.5C 29.6981,38.0484 29.1981,36.3817 29,34.5C 27.841,33.434 27.0076,33.7673 26.5,35.5C 26.5,36.1667 26.5,36.8333 26.5,37.5C 24.7748,37.1575 24.2748,36.1575 25,34.5C 26.4443,32.8446 28.2776,32.178 30.5,32.5C 30.2155,34.4147 30.5489,36.0813 31.5,37.5 Z"/></g>
<g><path style="opacity:0.998" fill="#2c37ff" d="M 56.5,31.5 C 51.1665,34.4443 50.4998,38.111 54.5,42.5C 54.1667,42.8333 53.8333,43.1667 53.5,43.5C 51.8539,42.2214 50.6872,40.5547 50,38.5C 48.9542,40.0905 47.7875,41.5905 46.5,43C 45.5632,43.6917 44.8966,43.525 44.5,42.5C 46.4167,40.7378 47.75,38.5712 48.5,36C 45.9174,29.581 46.7508,29.081 51,34.5C 51.956,33.4214 52.7894,32.2547 53.5,31C 54.7494,30.2599 55.7494,30.4265 56.5,31.5 Z"/></g>
<g><path style="opacity:0.686" fill="#7bf4de" d="M 34.5,32.5 C 35.1667,32.5 35.5,32.8333 35.5,33.5C 34.9152,39.1781 34.2486,44.8447 33.5,50.5C 31.901,50.7678 30.5676,50.4345 29.5,49.5C 30.1667,49.5 30.5,49.1667 30.5,48.5C 31.6935,48.0296 32.3601,47.0296 32.5,45.5C 33.4277,41.1969 34.0944,36.8636 34.5,32.5 Z"/></g>
<g><path style="opacity:0.812" fill="#86ddbe" d="M 26.5,35.5 C 27.1174,35.6107 27.6174,35.944 28,36.5C 28.8374,40.514 29.6708,44.514 30.5,48.5C 30.5,49.1667 30.1667,49.5 29.5,49.5C 28.7537,45.4346 27.7537,41.4346 26.5,37.5C 26.5,36.8333 26.5,36.1667 26.5,35.5 Z"/></g>
<g><path style="opacity:0.969" fill="#2d3cff" d="M 33.5,29.5 C 34.1667,29.5 34.5,29.8333 34.5,30.5C 34.5,31.1667 34.5,31.8333 34.5,32.5C 34.0944,36.8636 33.4277,41.1969 32.5,45.5C 32.3601,47.0296 31.6935,48.0296 30.5,48.5C 29.6708,44.514 28.8374,40.514 28,36.5C 27.6174,35.944 27.1174,35.6107 26.5,35.5C 27.0076,33.7673 27.841,33.434 29,34.5C 29.1981,36.3817 29.6981,38.0484 30.5,39.5C 30.3433,40.8734 30.51,42.2068 31,43.5C 32.3731,38.9276 33.2065,34.261 33.5,29.5 Z"/></g>
<g><path style="opacity:0.851" fill="#7fe8d3" d="M 56.5,31.5 C 56.8333,31.5 57.1667,31.5 57.5,31.5C 56.1925,33.4822 54.8592,35.4822 53.5,37.5C 58.008,43.9897 56.6746,45.6563 49.5,42.5C 47.4902,44.1713 45.1569,44.838 42.5,44.5C 42.2627,43.209 42.596,42.209 43.5,41.5C 43.5,42.1667 43.8333,42.5 44.5,42.5C 44.8966,43.525 45.5632,43.6917 46.5,43C 47.7875,41.5905 48.9542,40.0905 50,38.5C 50.6872,40.5547 51.8539,42.2214 53.5,43.5C 53.8333,43.1667 54.1667,42.8333 54.5,42.5C 50.4998,38.111 51.1665,34.4443 56.5,31.5 Z"/></g>
</svg>
